<svg width="129" height="67" viewBox="0 0 129 67" fill="none" xmlns="http://www.w3.org/2000/svg">
<path d="M0.00800061 0.183996H57.032L30.344 39.64V67H26.792V39.64L0.00800061 0.183996ZM100.543 28.024L128.383 67H74.6225V0.183996H128.383L100.543 28.024ZM98.0465 30.52L78.1745 50.392V63.448H121.567L98.0465 30.52Z" />
<path d="M0.00800037 0.183996V-0.816004H-1.87947L-0.819375 0.745646L0.00800037 0.183996ZM57.032 0.183996L57.8603 0.744265L58.9157 -0.816004H57.032V0.183996ZM30.344 39.64L29.5157 39.0797L29.344 39.3336V39.64H30.344ZM30.344 67V68H31.344V67H30.344ZM26.792 67H25.792V68H26.792V67ZM26.792 39.64H27.792V39.3326L27.6194 39.0784L26.792 39.64ZM0.00800037 1.184H57.032V-0.816004H0.00800037V1.184ZM56.2037 -0.376272L29.5157 39.0797L31.1723 40.2003L57.8603 0.744265L56.2037 -0.376272ZM29.344 39.64V67H31.344V39.64H29.344ZM30.344 66H26.792V68H30.344V66ZM27.792 67V39.64H25.792V67H27.792ZM27.6194 39.0784L0.835376 -0.377653L-0.819375 0.745646L25.9646 40.2016L27.6194 39.0784ZM100.543 28.024L99.8354 27.3169L99.2364 27.9159L99.7288 28.6052L100.543 28.024ZM128.383 67V68H130.326L129.196 66.4188L128.383 67ZM74.6225 67H73.6225V68H74.6225V67ZM74.6225 0.183996V-0.816004H73.6225V0.183996H74.6225ZM128.383 0.183996L129.09 0.891104L130.797 -0.816004H128.383V0.183996ZM98.0465 30.52L98.8602 29.9388L98.1741 28.9782L97.3394 29.8129L98.0465 30.52ZM78.1745 50.392L77.4674 49.6849L77.1745 49.9778V50.392H78.1745ZM78.1745 63.448H77.1745V64.448H78.1745V63.448ZM121.566 63.448V64.448H123.51L122.38 62.8668L121.566 63.448ZM99.7288 28.6052L127.569 67.5812L129.196 66.4188L101.356 27.4428L99.7288 28.6052ZM128.383 66H74.6225V68H128.383V66ZM75.6225 67V0.183996H73.6225V67H75.6225ZM74.6225 1.184H128.383V-0.816004H74.6225V1.184ZM127.675 -0.523111L99.8354 27.3169L101.25 28.7311L129.09 0.891104L127.675 -0.523111ZM97.3394 29.8129L77.4674 49.6849L78.8816 51.0991L98.7536 31.2271L97.3394 29.8129ZM77.1745 50.392V63.448H79.1745V50.392H77.1745ZM78.1745 64.448H121.566V62.448H78.1745V64.448ZM122.38 62.8668L98.8602 29.9388L97.2328 31.1012L120.753 64.0292L122.38 62.8668Z" />
   <style>
        path { fill: #000; }
        @media (prefers-color-scheme: dark) {
            path { fill: #FFF; }
        }
    </style>
    </svg>
